<svg id="visual" viewBox="0 0 1920 1080" width="1920" height="1080" xmlns="http://www.w3.org/2000/svg" xmlns:xlink="http://www.w3.org/1999/xlink" version="1.1"><rect x="0" y="0" width="1920" height="1080" fill="#001220"></rect><path d="M0 906L35.5 913C71 920 142 934 213.2 933C284.3 932 355.7 916 426.8 907C498 898 569 896 640 901.2C711 906.3 782 918.7 853.2 918.7C924.3 918.7 995.7 906.3 1066.8 907.3C1138 908.3 1209 922.7 1280 925.2C1351 927.7 1422 918.3 1493.2 913.5C1564.3 908.7 1635.7 908.3 1706.8 911.5C1778 914.7 1849 921.3 1884.5 924.7L1920 928L1920 1081L1884.5 1081C1849 1081 1778 1081 1706.8 1081C1635.7 1081 1564.3 1081 1493.2 1081C1422 1081 1351 1081 1280 1081C1209 1081 1138 1081 1066.8 1081C995.7 1081 924.3 1081 853.2 1081C782 1081 711 1081 640 1081C569 1081 498 1081 426.8 1081C355.7 1081 284.3 1081 213.2 1081C142 1081 71 1081 35.5 1081L0 1081Z" fill="#f97043"></path><path d="M0 963L35.5 963.2C71 963.3 142 963.7 213.2 967C284.3 970.3 355.7 976.7 426.8 976.3C498 976 569 969 640 961.7C711 954.3 782 946.7 853.2 943.8C924.3 941 995.7 943 1066.8 947.2C1138 951.3 1209 957.7 1280 964.3C1351 971 1422 978 1493.2 975C1564.3 972 1635.7 959 1706.8 958.5C1778 958 1849 970 1884.5 976L1920 982L1920 1081L1884.5 1081C1849 1081 1778 1081 1706.8 1081C1635.7 1081 1564.3 1081 1493.2 1081C1422 1081 1351 1081 1280 1081C1209 1081 1138 1081 1066.8 1081C995.7 1081 924.3 1081 853.2 1081C782 1081 711 1081 640 1081C569 1081 498 1081 426.8 1081C355.7 1081 284.3 1081 213.2 1081C142 1081 71 1081 35.5 1081L0 1081Z" fill="#e64262"></path><path d="M0 968L35.5 966.7C71 965.3 142 962.7 213.2 967.7C284.3 972.7 355.7 985.3 426.8 992.8C498 1000.3 569 1002.7 640 1000.2C711 997.7 782 990.3 853.2 987.2C924.3 984 995.7 985 1066.8 981.3C1138 977.7 1209 969.3 1280 971C1351 972.7 1422 984.3 1493.2 983.3C1564.3 982.3 1635.7 968.7 1706.8 963.2C1778 957.7 1849 960.3 1884.5 961.7L1920 963L1920 1081L1884.5 1081C1849 1081 1778 1081 1706.8 1081C1635.7 1081 1564.3 1081 1493.2 1081C1422 1081 1351 1081 1280 1081C1209 1081 1138 1081 1066.8 1081C995.7 1081 924.3 1081 853.2 1081C782 1081 711 1081 640 1081C569 1081 498 1081 426.8 1081C355.7 1081 284.3 1081 213.2 1081C142 1081 71 1081 35.5 1081L0 1081Z" fill="#bc287d"></path><path d="M0 1012L35.5 1009.5C71 1007 142 1002 213.2 1002.7C284.3 1003.3 355.7 1009.7 426.8 1016C498 1022.3 569 1028.7 640 1025.7C711 1022.7 782 1010.3 853.2 1002.8C924.3 995.3 995.7 992.7 1066.8 991.3C1138 990 1209 990 1280 995C1351 1000 1422 1010 1493.2 1017.5C1564.3 1025 1635.7 1030 1706.8 1027C1778 1024 1849 1013 1884.5 1007.5L1920 1002L1920 1081L1884.5 1081C1849 1081 1778 1081 1706.8 1081C1635.7 1081 1564.3 1081 1493.2 1081C1422 1081 1351 1081 1280 1081C1209 1081 1138 1081 1066.8 1081C995.7 1081 924.3 1081 853.2 1081C782 1081 711 1081 640 1081C569 1081 498 1081 426.8 1081C355.7 1081 284.3 1081 213.2 1081C142 1081 71 1081 35.5 1081L0 1081Z" fill="#7c2c8d"></path><path d="M0 1044L35.5 1044C71 1044 142 1044 213.2 1047.3C284.3 1050.7 355.7 1057.3 426.8 1053.8C498 1050.3 569 1036.7 640 1029.8C711 1023 782 1023 853.2 1028C924.3 1033 995.7 1043 1066.8 1046.3C1138 1049.7 1209 1046.3 1280 1043.5C1351 1040.7 1422 1038.3 1493.2 1037.7C1564.3 1037 1635.7 1038 1706.8 1040.2C1778 1042.3 1849 1045.7 1884.5 1047.3L1920 1049L1920 1081L1884.5 1081C1849 1081 1778 1081 1706.8 1081C1635.7 1081 1564.3 1081 1493.2 1081C1422 1081 1351 1081 1280 1081C1209 1081 1138 1081 1066.8 1081C995.7 1081 924.3 1081 853.2 1081C782 1081 711 1081 640 1081C569 1081 498 1081 426.8 1081C355.7 1081 284.3 1081 213.2 1081C142 1081 71 1081 35.5 1081L0 1081Z" fill="#00328c"></path></svg>